<svg width="218" height="223" viewBox="0 0 218 223" fill="none" xmlns="http://www.w3.org/2000/svg">
<path d="M9.23729 123.332C7.43048 123.313 5.66864 122.742 4.1699 121.689C2.67116 120.637 1.50133 119.148 0.805254 117.409C0.109176 115.67 -0.0825845 113.756 0.253713 111.904C0.59001 110.052 1.4396 108.344 2.69729 106.991L102.46 2.92914C104.153 1.1123 106.461 0.0605917 108.889 8.83533e-08C111.34 -0.000345165 113.691 1.01117 115.429 2.81352L215.192 106.875C216.926 108.684 217.901 111.138 217.901 113.697C217.901 116.256 216.926 118.709 215.192 120.519C213.457 122.328 211.105 123.344 208.652 123.344C206.199 123.344 203.846 122.328 202.112 120.519L108.889 23.1248L15.7773 120.596C14.0296 122.373 11.6783 123.357 9.23729 123.332Z" fill="white"/>
<path d="M153.524 223H64.4763C54.2222 222.959 44.4015 218.682 37.1645 211.104C29.9276 203.526 25.8643 193.266 25.8644 182.57V86.9877C25.8644 84.4323 26.8376 81.9815 28.5699 80.1745C30.3023 78.3675 32.6518 77.3524 35.1017 77.3524C37.5516 77.3524 39.9011 78.3675 41.6334 80.1745C43.3658 81.9815 44.339 84.4323 44.339 86.9877V182.57C44.339 188.182 46.4762 193.564 50.2803 197.532C52.164 199.497 54.4002 201.055 56.8613 202.119C59.3224 203.182 61.9602 203.729 64.6241 203.729H153.672C159 203.648 164.084 201.383 167.825 197.424C171.565 193.465 173.662 188.129 173.661 182.57V86.9877C173.661 84.4323 174.634 81.9815 176.367 80.1745C178.099 78.3675 180.448 77.3524 182.898 77.3524C185.348 77.3524 187.698 78.3675 189.43 80.1745C191.162 81.9815 192.136 84.4323 192.136 86.9877V182.57C192.136 193.266 188.072 203.526 180.835 211.104C173.599 218.682 163.778 222.959 153.524 223Z" fill="white"/>
<path d="M134.864 188.313H83.1356C81.9212 188.318 80.7178 188.072 79.5949 187.59C78.4719 187.107 77.4517 186.398 76.5929 185.502C75.7342 184.606 75.054 183.542 74.5915 182.371C74.129 181.199 73.8934 179.944 73.8983 178.677V152.277C73.8983 142.566 77.5965 133.253 84.1793 126.387C90.7622 119.52 99.6904 115.662 109 115.662C118.31 115.662 127.238 119.52 133.821 126.387C140.403 133.253 144.102 142.566 144.102 152.277V178.677C144.107 179.944 143.871 181.199 143.409 182.371C142.946 183.542 142.266 184.606 141.407 185.502C140.548 186.398 139.528 187.107 138.405 187.59C137.282 188.072 136.079 188.318 134.864 188.313ZM92.3729 169.042H125.627V152.277C125.627 147.677 123.875 143.265 120.757 140.013C117.639 136.76 113.41 134.933 109 134.933C104.59 134.933 100.361 136.76 97.2428 140.013C94.1247 143.265 92.3729 147.677 92.3729 152.277V169.042Z" fill="white"/>
</svg>
